<svg width="43" height="70" viewBox="0 0 43 70" fill="none" xmlns="http://www.w3.org/2000/svg">
<g clip-path="url(#clip0_2188_2199)">
<path d="M28.8364 69.7284L30.6375 64.6772H31.6532L33.4508 69.7284H32.5049L32.0791 68.4228H30.2082L29.7823 69.7284H28.8364ZM31.1366 65.5767L30.4351 67.7258H31.8522L31.1541 65.5767H31.1366Z" fill="black"/>
<path d="M24.7002 69.7284V64.6772H26.7875C27.7055 64.6772 28.2989 65.1743 28.2989 65.9408V65.9477C28.2989 66.4905 27.887 66.9769 27.3459 67.0502V67.0677C28.058 67.131 28.5397 67.6281 28.5397 68.2931V68.3C28.5397 69.1824 27.8835 69.7284 26.8084 69.7284H24.7002ZM26.5641 65.3811H25.5973V66.8126H26.4105C27.0563 66.8126 27.4088 66.5463 27.4088 66.0705V66.0637C27.4088 65.6255 27.0981 65.3811 26.5641 65.3811ZM26.5536 67.467H25.5973V69.0245H26.6025C27.2622 69.0245 27.6182 68.755 27.6182 68.2473V68.2404C27.6182 67.7327 27.2552 67.467 26.5536 67.467Z" fill="black"/>
<path d="M21.5345 69.8161C20.0651 69.8161 19.1436 68.8114 19.1436 67.2043V67.1974C19.1436 65.5942 20.0685 64.5901 21.5345 64.5901C23.004 64.5901 23.9254 65.5942 23.9254 67.1974V67.2043C23.9254 68.8114 23.0075 69.8161 21.5345 69.8161ZM21.5345 69.032C22.4455 69.032 23.0075 68.3175 23.0075 67.2043V67.1974C23.0075 66.0774 22.4351 65.3742 21.5345 65.3742C20.6374 65.3742 20.0616 66.0736 20.0616 67.1974V67.2043C20.0616 68.3281 20.634 69.032 21.5345 69.032Z" fill="black"/>
<path d="M14.2671 69.7704C14.1275 69.7704 14.0053 69.749 13.939 69.7284V68.9336C13.9843 68.9443 14.0786 68.9581 14.1554 68.9581C14.6266 68.9581 14.8047 68.5588 14.85 67.7189L15.014 64.6772H18.3579V69.7284H17.4608V65.4369H15.8203L15.6842 67.7747C15.6074 69.0947 15.2025 69.7704 14.2671 69.7704Z" fill="black"/>
<path d="M10.9723 67.5158V66.7813H11.66C12.2254 66.7813 12.5919 66.4798 12.5919 66.0285V66.0216C12.5919 65.6086 12.2603 65.3598 11.6843 65.3598C11.1224 65.3598 10.7733 65.5979 10.721 66.0041L10.714 66.0492H9.86584L9.86934 66.0072C9.91471 65.1322 10.6233 64.5901 11.7088 64.5901C12.7594 64.5901 13.468 65.1322 13.468 65.9201V65.927C13.468 66.4867 13.0875 66.9492 12.5256 67.0752V67.1028C13.2027 67.1836 13.6216 67.6669 13.6216 68.3388V68.3457C13.6216 69.1924 12.8118 69.8161 11.6913 69.8161C10.5535 69.8161 9.78903 69.2313 9.74715 68.377L9.74365 68.335H10.6163L10.6198 68.3664C10.6722 68.8007 11.0666 69.0458 11.6948 69.0458C12.3057 69.0458 12.7036 68.7518 12.7036 68.293V68.2861C12.7036 67.8029 12.3231 67.5158 11.6739 67.5158H10.9723Z" fill="black"/>
<path d="M6.79769 69.8161C5.32822 69.8161 4.40674 68.8114 4.40674 67.2043V67.1974C4.40674 65.5942 5.33171 64.5901 6.79769 64.5901C8.26719 64.5901 9.18863 65.5942 9.18863 67.1974V67.2043C9.18863 68.8114 8.27069 69.8161 6.79769 69.8161ZM6.79769 69.032C7.70869 69.032 8.27069 68.3175 8.27069 67.2043V67.1974C8.27069 66.0774 7.69825 65.3742 6.79769 65.3742C5.90065 65.3742 5.32473 66.0736 5.32473 67.1974V67.2043C5.32473 68.3281 5.89716 69.032 6.79769 69.032Z" fill="black"/>
<path d="M1.00356 69.7284H0.103027V64.6772H1.00356V66.8126H1.19205L3.01057 64.6772H4.05421L1.94947 67.0784L4.2427 69.7284H3.10481L1.19205 67.509H1.00356V69.7284Z" fill="black"/>
<path d="M24.6533 61.2042L26.4544 56.1533H27.4701L29.2677 61.2042H28.3218L27.8959 59.8986H26.0251L25.5993 61.2042H24.6533ZM26.9535 57.0529L26.2519 59.2021H27.6691L26.971 57.0529H26.9535Z" fill="black"/>
<path d="M19.812 61.2042V56.1533H20.7091V58.2535H23.1594V56.1533H24.0599V61.2042H23.1594V59.0131H20.7091V61.2042H19.812Z" fill="black"/>
<path d="M16.6463 61.2919C15.1769 61.2919 14.2554 60.2873 14.2554 58.6807V58.6737C14.2554 57.0706 15.1803 56.0659 16.6463 56.0659C18.1158 56.0659 19.0373 57.0706 19.0373 58.6737V58.6807C19.0373 60.2873 18.1193 61.2919 16.6463 61.2919ZM16.6463 60.5078C17.5573 60.5078 18.1193 59.7938 18.1193 58.6807V58.6737C18.1193 57.5535 17.5469 56.85 16.6463 56.85C15.7493 56.85 15.1734 57.5501 15.1734 58.6737V58.6807C15.1734 59.8043 15.7458 60.5078 16.6463 60.5078Z" fill="black"/>
<path d="M11.6934 61.2042V56.9129H10.189V56.1533H14.0983V56.9129H12.5939V61.2042H11.6934Z" fill="black"/>
<path d="M5.271 61.2042V56.1533H6.16805V58.2535H8.61832V56.1533H9.51888V61.2042H8.61832V59.0131H6.16805V61.2042H5.271Z" fill="black"/>
<path d="M0.0595703 61.2042L1.86064 56.1533H2.87636L4.67394 61.2042H3.72803L3.30219 59.8986H1.43132L1.00548 61.2042H0.0595703ZM2.35978 57.0529L1.65819 59.2021H3.07532L2.37723 57.0529H2.35978Z" fill="black"/>
<path d="M42.9831 52.6801H42.0895V50.8144H41.2587L39.9917 52.6801H38.9795L40.3477 50.6919C39.6776 50.5029 39.2273 49.9568 39.2273 49.2358V49.2288C39.2273 48.2802 39.9184 47.6292 40.976 47.6292H42.9831V52.6801ZM42.0895 50.1074V48.3642H41.1296C40.5118 48.3642 40.1418 48.6863 40.1418 49.2323V49.2393C40.1418 49.7889 40.5083 50.1074 41.1296 50.1074H42.0895Z" fill="black"/>
<path d="M34.1279 52.6801V47.6292H35.025V51.1995H35.0354L37.4997 47.6292H38.306V52.6801H37.4124V49.1063H37.3985L34.9342 52.6801H34.1279Z" fill="black"/>
<path d="M32.6691 53.6777V52.6801H28.6411V47.6292H29.5416V51.9206H31.9536V47.6292H32.854V51.9206H33.4859V53.6777H32.6691Z" fill="black"/>
<path d="M24.8503 52.6801H23.9497V47.6292H24.8503V49.7644H25.0388L26.8573 47.6292H27.9009L25.7961 50.0304L28.0894 52.6801H26.9515L25.0388 50.4609H24.8503V52.6801Z" fill="black"/>
<path d="M19.8413 52.6801V47.6292H23.0979V48.3887H20.7384V49.7503H22.9687V50.4819H20.7384V51.9206H23.0979V52.6801H19.8413Z" fill="black"/>
<path d="M14.791 52.7221C14.6514 52.7221 14.5292 52.7011 14.4629 52.6801V51.8855C14.5083 51.8961 14.6025 51.91 14.6793 51.91C15.1505 51.91 15.3285 51.511 15.3739 50.6709L15.538 47.6292H18.8818V52.6801H17.9848V48.3887H16.3443L16.2081 50.7269C16.1313 52.0465 15.7265 52.7221 14.791 52.7221Z" fill="black"/>
<path d="M9.72266 52.7221C9.58303 52.7221 9.46091 52.7011 9.39453 52.6801V51.8855C9.43997 51.8961 9.53416 51.91 9.61097 51.91C10.0822 51.91 10.2602 51.511 10.3056 50.6709L10.4696 47.6292H13.8135V52.6801H12.9164V48.3887H11.2759L11.1398 50.7269C11.063 52.0465 10.6581 52.7221 9.72266 52.7221Z" fill="black"/>
<path d="M6.79769 52.7677C5.32822 52.7677 4.40674 51.7631 4.40674 50.1565V50.1495C4.40674 48.5464 5.33171 47.5417 6.79769 47.5417C8.26719 47.5417 9.18863 48.5464 9.18863 50.1495V50.1565C9.18863 51.7631 8.27069 52.7677 6.79769 52.7677ZM6.79769 51.9836C7.70869 51.9836 8.27069 51.2696 8.27069 50.1565V50.1495C8.27069 49.0294 7.69825 48.3258 6.79769 48.3258C5.90065 48.3258 5.32473 49.0259 5.32473 50.1495V50.1565C5.32473 51.2801 5.89716 51.9836 6.79769 51.9836Z" fill="black"/>
<path d="M1.00356 52.6801H0.103027V47.6292H1.00356V49.7644H1.19205L3.01057 47.6292H4.05421L1.94947 50.0304L4.2427 52.6801H3.10481L1.19205 50.4609H1.00356V52.6801Z" fill="black"/>
<path d="M42.5208 0.506348H11.2104V31.9052H42.5208V0.506348Z" stroke="black" stroke-width="0.851485"/>
<path d="M37.1981 5.84399H5.8877V37.2429H37.1981V5.84399Z" fill="#1E8DD3"/>
<path d="M0.4375 11.0516L11.083 0.375977" stroke="black" stroke-width="0.851485"/>
<path d="M31.7803 11.2285L42.4571 0.521484" stroke="black" stroke-width="0.851485"/>
<path d="M32.0059 42.7034L42.6514 32.0278" stroke="black" stroke-width="0.851485"/>
<path d="M31.8753 11.1814H0.564941V42.5803H31.8753V11.1814Z" stroke="black" stroke-width="0.851485"/>
<path d="M31.8753 11.1814H0.564941V42.5803H31.8753V11.1814Z" stroke="black" stroke-width="0.851485"/>
<path d="M18.8782 39.7385H0.5625V24.4079C1.0625 21.906 7.625 19.8055 10.0937 25.385C13.4375 23.1903 19.75 26.1675 18.1562 31.371C25.25 31.371 24.25 39.7385 18.8782 39.7385Z" fill="white" stroke="black" stroke-width="0.851485"/>
</g>
<defs>
<clipPath id="clip0_2188_2199">
<rect width="43" height="69.8218" fill="white"/>
</clipPath>
</defs>
</svg>
