<svg width="50" height="50" viewBox="0 0 50 50" fill="none" xmlns="http://www.w3.org/2000/svg">
<rect x="8" y="6" width="36" height="35" fill="#1E8DD3"/>
<path d="M21.8527 45H1V28.1207C1.10477 27.7694 1.45377 27.3012 2.14567 26.8673C2.86484 26.4162 3.8315 26.0861 4.8736 26.0145C6.90939 25.8747 9.17962 26.7114 10.4598 29.5585L10.937 30.6196L11.9144 29.9884C13.5095 28.9582 15.9665 29.091 17.8677 30.2575C19.6999 31.3816 20.8258 33.3433 20.0365 35.879L19.6327 37.1762H20.9913C22.9125 37.1762 24.1592 37.7302 24.9123 38.4393C25.6667 39.1495 26.0159 40.0978 25.9995 41.0712C25.9662 43.0398 24.4551 45 21.8527 45Z" fill="white" stroke="black" stroke-width="2"/>
<path d="M1 49V12.4142L12.4142 1H49V36.5858L36.5858 49H1Z" stroke="black" stroke-width="2"/>
<line x1="36.3243" y1="12.2628" x2="48.3243" y2="1.26285" stroke="black" stroke-width="2"/>
<line x1="1" y1="12" x2="37" y2="12" stroke="black" stroke-width="2"/>
<line x1="44" y1="37" x2="49" y2="37" stroke="black" stroke-width="2"/>
<line x1="37" y1="48" x2="37" y2="12" stroke="black" stroke-width="2"/>
<line x1="12" y1="6" x2="12" y2="1" stroke="black" stroke-width="2"/>
</svg>
