<svg width="50" height="50" viewBox="0 0 50 50" fill="none" xmlns="http://www.w3.org/2000/svg">
<path d="M43.0637 6.93689H6.93652V43.0646H43.0637V6.93689Z" fill="#1E8DD3"/>
<path d="M21.9253 45.9361H0.791992V28.2965C1.36918 25.4179 8.94108 23.0007 11.7895 29.4208C15.648 26.8959 22.9313 30.3208 21.0922 36.308C29.2771 36.308 28.1236 45.9361 21.9253 45.9361Z" fill="white"/>
<path d="M50 0H12.403L0.0595122 12.3437L0 12.4032V50H37.5122H37.597L49.9405 37.6571L50 37.5976V0ZM47.5779 37.7175L37.7169 47.5787V13.3513L48.4103 2.65771V36.1277H43.0632V37.7175H47.5771H47.5779ZM13.8729 6.93613V1.58973H47.2298L36.5372 12.2825H2.41717L12.2831 2.4164V6.93613H13.8729ZM2.77914 27.0255C3.54464 26.5388 4.50907 26.2331 5.49387 26.1646C6.59933 26.0879 7.65913 26.3154 8.55997 26.8241C9.62956 27.4274 10.4709 28.4098 11.0627 29.7427L11.4418 30.5979L12.2245 30.0859C13.8052 29.0514 16.2452 29.1582 18.1569 30.3476C19.1148 30.9436 19.8306 31.745 20.2268 32.6662C20.6727 33.704 20.7086 34.8511 20.332 36.0756L20.0157 37.1036H21.0909C22.7654 37.1036 24.1163 37.5479 24.9976 38.3884C25.7304 39.0879 26.1242 40.054 26.1071 41.1097C26.0639 43.7283 23.9198 45.1419 21.9249 45.1419H1.58971V28.3764C1.71607 27.9182 2.14814 27.4274 2.77914 27.0263V27.0255ZM26.1389 44.9773C27.1058 43.9509 27.6732 42.5503 27.6968 41.1358C27.7221 39.6317 27.153 38.2474 26.0957 37.2381C25.1109 36.2989 23.7282 35.7209 22.0855 35.5611C22.5258 32.9222 21.3828 30.4821 18.9966 28.9984C16.855 27.6671 14.1851 27.4127 12.1331 28.3307C10.6951 25.7455 8.24529 24.38 5.383 24.5789C4.13895 24.6653 2.9112 25.0583 1.9264 25.6844C1.81064 25.7578 1.69813 25.8352 1.58971 25.9151V13.8731H36.1271V48.4111H1.58971V46.7317H21.9249C24.0429 46.7317 25.3856 45.7778 26.1389 44.9781V44.9773Z" fill="black"/>
</svg>
