<svg width="550" height="431" viewBox="0 0 550 431" fill="none" xmlns="http://www.w3.org/2000/svg">
<path d="M548.911 429.367V430.367H549.911V429.367H548.911ZM548.911 62.2206H549.911V62.1206L549.891 62.0225L548.911 62.2206ZM318.142 85.6198L317.597 86.4586L318.578 87.0949L319.055 86.0282L318.142 85.6198ZM122.934 228.977V229.977H124.291L123.889 228.681L122.934 228.977ZM105.453 430.367H548.911V428.367H105.453V430.367ZM549.911 429.367V62.2206H547.911V429.367H549.911ZM549.891 62.0225C546.789 46.6684 534.337 32.092 516.685 20.9628C499.008 9.8174 475.983 2.03849 451.471 0.346009C402.396 -3.0424 347.307 17.9741 317.229 85.2115L319.055 86.0282C348.75 19.6455 402.993 -0.996382 451.333 2.34126C475.528 4.0118 498.231 11.692 515.618 22.6546C533.032 33.6335 544.98 47.8141 547.931 62.4186L549.891 62.0225ZM318.686 84.7811C277.806 58.2419 218.932 63.0248 175.183 90.0067C131.365 117.031 102.526 166.449 121.979 229.273L123.889 228.681C104.755 166.888 133.04 118.348 176.233 91.709C219.496 65.027 277.519 60.4399 317.597 86.4586L318.686 84.7811ZM122.934 227.977C79.7999 227.977 48.8432 240.562 28.7676 259.562C8.69381 278.559 -0.410727 303.887 0.0141981 329.189C0.863661 379.769 39.8165 430.367 105.453 430.367V428.367C41.0301 428.367 2.84717 378.77 2.01392 329.155C1.59748 304.359 10.5149 279.59 30.1424 261.014C49.7682 242.441 80.1921 229.977 122.934 229.977V227.977Z" fill="#1E8DD3"/>
</svg>
