<svg width="310" height="149" viewBox="0 0 310 149" fill="none" xmlns="http://www.w3.org/2000/svg">
<path d="M42.8434 79.2335V80.2335H44.1999L43.7987 78.9377L42.8434 79.2335ZM109.832 30.0385L109.287 30.8772L110.267 31.5136L110.745 30.4468L109.832 30.0385ZM154.837 1.0732L154.783 2.07172L154.837 2.07468L154.892 2.07172L154.837 1.0732ZM199.843 30.0385L198.93 30.4468L199.407 31.5136L200.387 30.8772L199.843 30.0385ZM266.831 79.2335L265.876 78.9377L265.475 80.2335H266.831V79.2335ZM36.8446 149H120.651V147H36.8446V149ZM42.8434 78.2335C27.9125 78.2335 17.1143 82.5923 10.0774 89.252C3.04218 95.91 -0.143643 104.785 0.00496489 113.634C0.301792 131.308 13.9219 149 36.8446 149V147C15.1355 147 2.2853 130.309 2.00468 113.6C1.86457 105.257 4.86322 96.9403 11.4521 90.7046C18.0393 84.4706 28.3047 80.2335 42.8434 80.2335V78.2335ZM110.376 29.1997C96.0844 19.9215 75.6015 21.6271 60.4287 30.9848C45.1867 40.3853 35.1077 57.6319 41.8882 79.5293L43.7987 78.9377C37.3373 58.0711 46.8614 41.7022 61.4786 32.6871C76.1649 23.6294 95.7971 22.1195 109.287 30.8772L110.376 29.1997ZM154.892 0.0746747C137.996 -0.84518 119.214 6.61475 108.919 29.6301L110.745 30.4468C120.665 8.26986 138.62 1.19177 154.783 2.07172L154.892 0.0746747ZM154.892 2.07172C171.055 1.19177 189.009 8.26986 198.93 30.4468L200.756 29.6301C190.46 6.61475 171.679 -0.84518 154.783 0.0746747L154.892 2.07172ZM200.387 30.8772C213.877 22.1195 233.51 23.6294 248.196 32.6871C262.813 41.7022 272.337 58.0711 265.876 78.9377L267.786 79.5293C274.567 57.6319 264.488 40.3853 249.246 30.9848C234.073 21.6271 213.59 19.9215 199.298 29.1997L200.387 30.8772ZM266.831 80.2335C281.37 80.2335 291.635 84.4706 298.222 90.7046C304.811 96.9403 307.81 105.257 307.67 113.6C307.389 130.309 294.539 147 272.83 147V149C295.753 149 309.373 131.308 309.67 113.634C309.818 104.785 306.632 95.91 299.597 89.252C292.56 82.5923 281.762 78.2335 266.831 78.2335V80.2335ZM272.83 147H189.023V149H272.83V147ZM189.023 147H120.651V149H189.023V147Z" fill="#1E8DD3"/>
</svg>
