<svg width="100" height="78" viewBox="0 0 100 78" fill="none" xmlns="http://www.w3.org/2000/svg">
<path d="M80.9361 77H1V11.2516C1.50939 8.92924 3.47153 6.54761 6.51138 4.63546C9.56634 2.71381 13.579 1.35547 17.8653 1.06021C26.3888 0.473068 35.9427 4.07982 41.2055 15.8173L41.6827 16.8815L42.6616 16.2475C49.6492 11.7217 59.8923 12.4774 67.5897 17.2136C75.2179 21.9073 80.1515 30.3866 76.7906 41.2152L76.3882 42.5117H77.7456C85.3868 42.5117 90.7221 44.7317 94.1201 47.9401C97.5196 51.1499 99.0701 55.4315 98.9976 59.739C98.8522 68.3764 92.2001 77 80.9361 77Z" stroke="black" stroke-width="2"/>
</svg>
