<svg width="101" height="80" viewBox="0 0 101 80" fill="none" xmlns="http://www.w3.org/2000/svg">
<g clip-path="url(#clip0_1436_1433)">
<path d="M80.9961 80H0L0.0241108 12.0613C1.18946 6.25133 8.7281 1.13948 17.5687 0.168472C28.6114 -1.05131 38.1191 4.40561 43.2547 14.8139C51.2434 10.4002 62.6558 11.5638 70.966 17.8072C78.6734 23.5931 81.7114 32.0995 79.4289 41.3281C86.0674 41.6009 91.5566 43.6071 95.3742 47.1782C98.9988 50.5647 101 55.2432 101 60.347C101 65.4509 99.0711 70.2176 95.7197 73.8288C92.0228 77.8092 86.7988 80 81.0041 80H80.9961ZM2.41108 77.5925H80.9961C92.4246 77.5925 98.5889 68.7089 98.5889 60.347C98.5889 55.9173 96.861 51.8647 93.7346 48.9357C90.0698 45.509 84.5806 43.7034 77.8617 43.7034H76.2302L76.7124 42.1466C79.4128 33.3594 76.7928 25.19 69.5274 19.7331C61.5789 13.7626 50.5924 12.8478 43.3994 17.5423L42.2099 18.3207L41.6313 17.0287C35.0972 2.31914 22.8088 2.01419 17.8339 2.55989C10.1828 3.4025 3.44784 7.71988 2.41108 12.4225V77.5925Z" fill="black"/>
</g>
<defs>
<clipPath id="clip0_1436_1433">
<rect width="101" height="80" fill="white"/>
</clipPath>
</defs>
</svg>
