<svg width="101" height="101" viewBox="0 0 101 101" fill="none" xmlns="http://www.w3.org/2000/svg">
<g clip-path="url(#clip0_1436_1427)">
<path d="M101 0H24.4162L0 24.4162V100.992H76.5838V100.928L76.6562 100.992C77.2509 100.325 91.5405 86.0674 101 76.6481L100.92 76.5678H101V0ZM24.4162 74.872L2.41108 96.8851V26.8272H24.4162V74.872ZM26.8272 26.8272H74.1647V74.1647H26.8272V26.8272ZM76.5838 26.12L98.5889 4.1149V74.1647H76.5838V26.12ZM96.8851 2.41108L74.88 24.4162H26.8353V2.41108H96.8931H96.8851ZM24.4162 3.40765V24.4162H3.40765L24.4162 3.40765ZM4.1149 98.5889L26.12 76.5838H74.1647V98.5889H4.1149ZM76.5838 97.6325V76.5758H97.6647C84.5886 89.5956 78.9869 95.2054 76.5838 97.6325Z" fill="black"/>
</g>
<defs>
<clipPath id="clip0_1436_1427">
<rect width="101" height="101" fill="white"/>
</clipPath>
</defs>
</svg>
