<svg width="189" height="168" viewBox="0 0 189 168" fill="none" xmlns="http://www.w3.org/2000/svg">
<path fill-rule="evenodd" clip-rule="evenodd" d="M-23.4429 166.311L-117.691 166.311C-167.882 166.311 -177.225 88.9784 -110.944 88.9784C-125.836 40.8876 -66.8546 13.373 -35.612 33.6556C-24.2446 8.24406 -3.58788 0.0698639 15.001 1.0824C33.5896 0.0702534 54.2457 8.24463 65.6129 33.6556C96.8555 13.373 155.837 40.8876 140.945 88.9785C207.226 88.9785 197.883 166.311 147.691 166.311H-23.4429Z" fill="white"/>
<path d="M-117.691 166.311V165.311V166.311ZM-23.4429 166.311V167.311V166.311ZM-110.944 88.9784V89.9784H-109.588L-109.989 88.6826L-110.944 88.9784ZM-35.612 33.6556L-36.1566 34.4943L-35.1764 35.1306L-34.6992 34.0639L-35.612 33.6556ZM15.001 1.0824L14.9466 2.08092L15.001 2.08388L15.0554 2.08092L15.001 1.0824ZM65.6129 33.6556L64.7001 34.064L65.1773 35.1307L66.1574 34.4944L65.6129 33.6556ZM140.945 88.9785L139.99 88.6827L139.589 89.9785H140.945V88.9785ZM-117.691 167.311L-23.4429 167.311V165.311L-117.691 165.311V167.311ZM-110.944 87.9784C-127.711 87.9784 -139.821 92.8726 -147.706 100.335C-155.59 107.796 -159.161 117.742 -158.994 127.661C-158.662 147.477 -143.393 167.311 -117.691 167.311V165.311C-142.179 165.311 -156.678 146.478 -156.995 127.628C-157.153 118.214 -153.769 108.827 -146.332 101.788C-138.896 94.7508 -127.319 89.9784 -110.944 89.9784V87.9784ZM-35.0675 32.8168C-51.0897 22.4153 -74.071 24.3211 -91.1034 34.8258C-108.205 45.3732 -119.505 64.7134 -111.9 89.2742L-109.989 88.6826C-117.275 65.1526 -106.53 46.6901 -90.0535 36.5281C-73.5075 26.3234 -51.377 24.6133 -36.1566 34.4943L-35.0675 32.8168ZM15.0554 0.0838783C-3.90001 -0.94862 -24.9699 7.41649 -36.5249 33.2472L-34.6992 34.0639C-23.5193 9.07163 -3.27574 1.08835 14.9466 2.08092L15.0554 0.0838783ZM15.0554 2.08092C33.2775 1.08873 53.5204 9.0722 64.7001 34.064L66.5258 33.2473C54.971 7.41707 33.9018 -0.948224 14.9467 0.0838772L15.0554 2.08092ZM66.1574 34.4944C81.3778 24.6133 103.508 26.3235 120.054 36.5282C136.531 46.6902 147.276 65.1526 139.99 88.6827L141.901 89.2743C149.506 64.7135 138.206 45.3732 121.104 34.8259C104.072 24.3212 81.0905 22.4153 65.0684 32.8169L66.1574 34.4944ZM140.945 89.9785C157.319 89.9785 168.897 94.7509 176.332 101.788C183.77 108.827 187.154 118.214 186.996 127.628C186.679 146.478 172.18 165.311 147.691 165.311V167.311C173.394 167.311 188.663 147.477 188.995 127.661C189.162 117.742 185.591 107.796 177.707 100.335C169.822 92.8726 157.712 87.9785 140.945 87.9785V89.9785ZM147.691 165.311H-23.4429V167.311H147.691V165.311Z" fill="black"/>
</svg>
