<svg width="30" height="22" viewBox="0 0 30 22" fill="none" xmlns="http://www.w3.org/2000/svg">
<path d="M29.3727 3.3C29.2031 2.66177 28.8689 2.07928 28.4034 1.61082C27.9379 1.14236 27.3576 0.804376 26.7205 0.630682C24.375 7.45058e-08 15 0 15 0C15 0 5.625 7.45058e-08 3.27955 0.630682C2.64241 0.804376 2.06207 1.14236 1.59661 1.61082C1.13115 2.07928 0.796882 2.66177 0.627273 3.3C7.45058e-08 5.65568 0 10.5682 0 10.5682C0 10.5682 7.45058e-08 15.4807 0.627273 17.8364C0.796882 18.4746 1.13115 19.0571 1.59661 19.5255C2.06207 19.994 2.64241 20.332 3.27955 20.5057C5.625 21.1364 15 21.1364 15 21.1364C15 21.1364 24.375 21.1364 26.7205 20.5057C27.3576 20.332 27.9379 19.994 28.4034 19.5255C28.8689 19.0571 29.2031 18.4746 29.3727 17.8364C30 15.4807 30 10.5682 30 10.5682C30 10.5682 30 5.65568 29.3727 3.3Z" fill="#1E8DD3"/>
<path d="M11.9326 15.029V6.10742L19.7735 10.5682L11.9326 15.029Z" fill="white"/>
</svg>
